<?xml version="1.0" standalone="no"?>
<!DOCTYPE svg PUBLIC "-//W3C//DTD SVG 20010904//EN"
 "http://www.w3.org/TR/2001/REC-SVG-20010904/DTD/svg10.dtd">
<svg version="1.0" xmlns="http://www.w3.org/2000/svg"
 width="800.000000pt" height="800.000000pt" viewBox="0 0 800.000000 800.000000"
 preserveAspectRatio="xMidYMid meet">
<metadata>
Created by potrace 1.14, written by Peter Selinger 2001-2017
</metadata>
<g transform="translate(0.000000,800.000000) scale(0.100000,-0.100000)"
fill="#000000" stroke="none">
<path d="M3820 7553 c-485 -36 -927 -159 -1360 -378 -983 -498 -1688 -1441
-1885 -2517 -46 -256 -58 -414 -51 -728 5 -299 6 -304 37 -495 87 -524 271
-987 563 -1420 382 -566 921 -1011 1549 -1281 330 -141 651 -224 1037 -268
168 -20 626 -15 800 8 1083 143 1997 728 2583 1654 91 143 241 445 304 612
307 808 307 1723 0 2529 -170 449 -435 863 -777 1215 -606 623 -1391 993
-2265 1066 -111 9 -429 11 -535 3z m679 -148 c782 -109 1453 -439 1995 -981
550 -551 887 -1248 982 -2034 24 -198 24 -582 0 -775 -120 -967 -611 -1810
-1385 -2377 -449 -328 -1021 -560 -1551 -627 -47 -6 -103 -13 -125 -17 -71
-10 -537 -13 -645 -3 -811 72 -1579 439 -2151 1025 -464 478 -771 1059 -904
1709 -88 431 -89 917 -4 1340 139 693 474 1309 976 1796 439 425 950 711 1538
862 167 43 321 71 470 86 61 6 124 13 140 15 72 10 556 -4 664 -19z"/>
<path d="M4308 7115 c-6 -29 -5 -29 107 -46 44 -6 81 -13 82 -13 3 -3 -45
-297 -49 -302 -3 -2 -55 4 -116 14 l-112 18 0 -27 c0 -26 3 -27 93 -43 129
-22 406 -66 417 -66 6 0 10 11 10 25 0 28 2 27 -134 50 -49 8 -90 16 -91 17
-4 4 45 292 50 297 3 2 44 -2 92 -9 49 -7 93 -12 98 -11 12 1 20 51 8 51 -4 0
-100 16 -213 35 -113 19 -212 35 -221 35 -10 0 -19 -10 -21 -25z"/>
<path d="M3684 7029 c-17 -5 -39 -18 -49 -29 -21 -24 -35 -26 -35 -5 0 10 -10
15 -31 15 -30 0 -31 -1 -25 -37 3 -21 10 -81 16 -133 16 -141 16 -140 50 -140
35 0 36 9 19 140 -11 80 -11 83 12 105 34 33 62 39 88 18 17 -15 23 -35 32
-108 15 -135 15 -135 49 -135 27 0 30 3 30 33 0 63 -22 202 -37 234 -9 19 -26
36 -45 42 -35 12 -32 12 -74 0z"/>
<path d="M3006 7007 c-11 -8 -17 -23 -14 -38 2 -20 8 -24 38 -24 30 0 36 4 38
24 4 22 -18 51 -38 51 -3 0 -14 -6 -24 -13z"/>
<path d="M5380 6884 c-18 -21 -139 -91 -172 -99 -24 -6 -28 -12 -28 -41 0 -38
-1 -38 35 -24 25 10 23 3 -39 -116 -36 -69 -66 -129 -66 -133 0 -4 10 -13 23
-18 22 -10 27 -4 113 159 91 174 90 173 188 240 6 4 3 15 -8 27 -23 25 -30 26
-46 5z"/>
<path d="M3048 6883 c-10 -2 -18 -7 -18 -11 0 -3 21 -71 47 -150 l48 -144 29
6 c16 4 31 8 34 10 2 3 -18 70 -44 150 -49 149 -51 151 -96 139z"/>
<path d="M5485 6794 c-22 -19 -68 -48 -103 -66 -43 -21 -61 -36 -57 -45 3 -8
5 -19 5 -24 0 -16 26 -10 81 20 30 15 60 26 67 24 9 -4 -14 -56 -73 -169 -47
-90 -85 -167 -85 -172 0 -5 11 -14 24 -20 21 -9 25 -7 40 26 10 21 24 47 31
58 l14 22 74 -39 74 -39 11 25 c11 24 9 26 -62 62 l-74 36 16 34 c9 18 18 32
21 31 3 -2 35 -18 70 -37 61 -31 66 -32 78 -16 17 24 13 28 -59 65 -35 18 -64
34 -66 35 -7 6 22 55 32 55 7 0 43 -16 80 -36 66 -35 70 -36 83 -19 19 27 17
29 -24 49 -21 10 -67 33 -101 53 l-64 35 26 27 c26 27 26 28 8 44 -10 9 -20
17 -23 17 -2 -1 -22 -16 -44 -36z"/>
<path d="M2505 6642 c-31 -19 -95 -87 -95 -101 0 -4 11 -13 23 -18 21 -10 26
-8 41 18 9 16 31 36 47 45 28 14 33 14 55 -1 13 -8 24 -17 24 -20 0 -2 -25
-28 -55 -59 -48 -48 -55 -60 -55 -94 0 -59 30 -92 84 -92 48 0 80 19 102 61
11 22 20 28 34 24 11 -3 28 -1 39 4 19 10 17 16 -36 106 -30 52 -68 106 -85
120 -35 30 -81 32 -123 7z m152 -180 c12 -47 -57 -101 -92 -72 -25 21 -17 52
22 92 35 36 39 37 51 21 7 -10 15 -28 19 -41z"/>
<path d="M3851 6449 c-759 -55 -1464 -481 -1878 -1136 -81 -129 -186 -350
-237 -500 -90 -263 -129 -502 -129 -788 0 -188 24 -439 44 -459 19 -21 20 7 5
115 -94 643 83 1300 492 1829 85 109 293 317 402 402 375 290 804 461 1270
507 132 13 423 6 555 -14 535 -79 992 -309 1370 -689 367 -369 594 -818 677
-1339 18 -116 22 -182 22 -357 0 -124 -6 -249 -13 -295 -24 -152 -25 -168 -10
-163 35 12 67 451 47 668 -26 298 -105 582 -238 855 -117 240 -246 427 -428
616 -426 445 -978 704 -1593 748 -159 12 -192 12 -358 0z"/>
<path d="M6093 6344 c-36 -28 -41 -45 -19 -63 12 -10 20 -9 39 3 23 16 25 15
156 -124 111 -117 131 -143 121 -155 -10 -13 -34 7 -148 125 -129 135 -135
140 -154 124 -18 -17 -18 -19 19 -56 l38 -39 -45 7 c-25 4 -55 10 -66 15 -17
6 -24 3 -32 -15 -9 -20 -4 -27 49 -71 l59 -49 -20 -20 -20 -20 -65 64 c-60 60
-66 63 -81 48 -16 -15 -13 -21 45 -81 61 -64 61 -64 41 -82 -20 -19 -22 -18
-100 60 -75 74 -81 78 -97 63 -15 -16 -8 -25 105 -145 66 -70 147 -154 179
-186 57 -55 60 -57 76 -39 16 17 12 22 -63 97 l-80 79 22 23 22 24 66 -66 c57
-57 68 -64 79 -51 16 19 6 38 -58 100 -47 47 -50 51 -34 68 13 15 14 20 2 35
-14 18 21 -9 78 -61 25 -22 31 -35 27 -53 -5 -20 -2 -23 20 -23 26 0 26 1 26
73 l1 72 29 -35 c23 -28 31 -32 41 -23 10 10 17 9 33 -6 21 -19 21 -19 60 15
l39 34 -72 75 c-67 71 -71 78 -65 110 5 28 2 35 -16 45 -18 9 -24 9 -33 -4
-10 -14 -22 -6 -87 59 -41 41 -77 75 -80 75 -3 0 -20 -12 -37 -26z m137 -270
c25 -24 30 -34 18 -34 -9 0 -18 -9 -20 -20 -3 -18 -12 -12 -68 39 l-65 60 50
-6 c39 -4 57 -12 85 -39z"/>
<path d="M1973 6245 c-36 -16 -63 -60 -63 -105 0 -26 -3 -30 -19 -25 -46 14
-106 -35 -116 -97 -6 -33 -9 -37 -21 -27 -12 10 -19 8 -37 -10 l-22 -22 115
-109 115 -108 25 25 25 25 -84 79 c-80 76 -83 80 -77 113 9 45 41 69 70 54 12
-5 55 -44 96 -84 l76 -75 24 26 24 26 -77 77 c-62 63 -77 83 -77 108 0 35 26
64 58 64 12 0 54 -32 105 -80 l84 -79 24 25 23 24 -65 66 c-107 108 -153 132
-206 109z"/>
<path d="M4449 6100 c-143 -13 -278 -55 -439 -136 -121 -61 -125 -65 -59 -58
136 15 237 -53 313 -213 81 -167 175 -237 511 -379 227 -96 295 -130 371 -187
55 -41 111 -105 127 -147 3 -8 6 25 6 73 2 196 -72 376 -212 519 -109 110
-267 203 -474 278 -59 21 -106 39 -103 39 3 1 44 -4 90 -10 405 -50 672 -242
770 -554 32 -100 39 -290 15 -422 -21 -119 -84 -315 -121 -380 -15 -26 -57
-77 -94 -113 -157 -156 -366 -193 -507 -91 -47 34 -93 118 -93 170 1 48 30
109 72 148 66 63 183 52 213 -21 20 -48 7 -81 -41 -96 -20 -7 -54 -10 -76 -7
-36 5 -38 4 -32 -16 12 -38 43 -74 78 -91 39 -19 108 -21 139 -5 139 72 121
259 -29 309 -40 14 -49 22 -56 47 -4 17 -24 45 -43 62 -47 41 -109 43 -175 5
-25 -15 -76 -42 -114 -62 -79 -41 -119 -89 -135 -162 -29 -135 62 -291 212
-365 187 -91 415 -58 623 90 207 148 338 421 351 732 11 250 -43 443 -179 639
-196 285 -538 437 -909 404z"/>
<path d="M1542 5618 c-166 -276 -294 -606 -357 -923 -35 -179 -40 -225 -23
-225 10 0 18 24 27 83 55 367 211 786 408 1099 13 20 14 31 6 39 -8 8 -24 -12
-61 -73z"/>
<path d="M6535 5690 c-3 -6 16 -47 43 -93 187 -310 322 -688 378 -1054 12 -83
21 -113 31 -113 16 0 14 20 -14 185 -57 339 -186 689 -363 988 -53 90 -65 104
-75 87z"/>
<path d="M2791 5653 c2 -5 154 -366 338 -802 l335 -791 87 0 c224 0 516 -39
714 -96 317 -91 553 -222 807 -449 117 -104 120 -101 43 35 -120 213 -325 417
-560 559 -196 119 -387 196 -790 318 l-59 18 -165 412 c-91 227 -162 416 -158
420 13 13 312 5 422 -12 198 -30 411 -92 593 -175 l87 -40 -60 57 c-293 277
-741 466 -1255 528 -173 21 -384 31 -379 18z"/>
<path d="M2540 5618 c0 -2 161 -424 358 -938 310 -810 361 -935 378 -933 10 1
84 9 164 19 194 23 495 23 654 0 225 -32 456 -105 626 -198 86 -47 227 -142
285 -192 l40 -35 -107 -1 c-93 0 -107 -2 -112 -17 -3 -10 -28 -146 -56 -303
-28 -157 -53 -293 -56 -303 -5 -16 3 -17 112 -15 l118 3 27 148 c14 81 28 149
30 152 3 2 42 -66 88 -150 l83 -155 117 0 117 0 53 293 c29 160 55 304 58 320
l6 27 -116 0 c-111 0 -115 -1 -120 -22 -3 -13 -16 -83 -28 -155 -13 -73 -26
-133 -29 -133 -7 0 -146 259 -155 289 -11 38 -212 233 -299 291 -172 115 -397
199 -636 239 -181 30 -419 45 -606 37 l-161 -6 -345 867 -345 868 -72 3 c-39
2 -71 2 -71 0z"/>
<path d="M1024 4146 c-30 -30 -34 -40 -34 -86 0 -46 4 -56 34 -86 30 -30 40
-34 86 -34 47 0 56 4 86 36 29 31 34 42 34 86 0 44 -4 54 -34 84 -30 30 -40
34 -86 34 -46 0 -56 -4 -86 -34z"/>
<path d="M6952 4164 c-49 -34 -66 -109 -37 -164 19 -38 63 -60 116 -60 33 0
47 6 75 34 30 30 34 40 34 86 0 46 -4 56 -34 86 -29 29 -41 34 -83 34 -28 0
-58 -7 -71 -16z"/>
<path d="M1702 3402 c7 -149 53 -239 168 -327 l60 -46 0 55 c0 137 -58 274
-152 361 -32 30 -64 55 -70 55 -7 0 -9 -32 -6 -98z"/>
<path d="M6304 3460 c-70 -50 -123 -145 -149 -268 -15 -69 -20 -152 -9 -152 3
0 34 22 68 50 110 87 145 158 154 308 5 106 2 109 -64 62z"/>
<path d="M6732 3333 c-6 -20 -9 -39 -7 -43 2 -3 44 -19 94 -35 50 -16 91 -31
91 -34 0 -4 -54 -21 -120 -40 -117 -33 -119 -34 -131 -68 -6 -19 -9 -36 -6
-39 14 -14 362 -123 370 -115 5 5 10 23 10 41 2 32 1 33 -83 61 -47 16 -92 32
-100 35 -8 3 43 23 114 43 129 37 129 37 142 74 l13 37 -185 60 c-101 33 -186
60 -188 60 -1 0 -8 -16 -14 -37z"/>
<path d="M2828 3309 l34 -30 -51 -283 c-28 -155 -51 -285 -51 -289 0 -4 54 -7
120 -7 66 0 120 4 120 9 0 12 28 173 41 241 l11 55 72 -142 71 -141 73 83 72
84 -112 225 -113 226 -160 0 -160 -1 33 -30z"/>
<path d="M3374 3229 l-98 -111 48 -96 48 -97 34 40 c19 22 34 36 34 30 0 -5
-11 -70 -25 -144 -14 -74 -25 -138 -25 -143 0 -4 53 -8 118 -8 l118 0 53 293
c29 160 55 304 58 320 l5 27 -135 0 -135 0 -98 -111z"/>
<path d="M3795 3328 c-9 -28 -34 -182 -30 -186 2 -2 25 3 51 12 37 12 88 16
222 16 l174 0 -6 -22 c-3 -13 -6 -29 -6 -35 0 -10 -52 -13 -225 -13 -124 0
-225 -4 -225 -8 0 -8 -56 -319 -66 -364 l-6 -28 121 0 c67 0 121 1 121 3 0 2
9 52 20 112 11 60 20 110 20 112 0 2 47 3 104 3 l103 0 -18 -102 c-10 -57 -19
-109 -19 -115 0 -10 30 -13 118 -13 l117 0 49 270 c27 149 47 272 45 274 -2 1
-30 23 -62 49 l-59 47 -269 0 c-207 0 -271 -3 -274 -12z"/>
<path d="M4489 3308 l35 -31 -48 -266 c-26 -146 -50 -276 -53 -288 -5 -23 -5
-23 116 -23 67 0 121 4 121 8 0 4 25 143 55 309 30 166 55 307 55 312 0 7 -53
11 -157 11 l-158 -1 34 -31z"/>
<path d="M1177 3163 c-86 -65 -156 -124 -157 -131 0 -7 7 -26 14 -41 l15 -28
103 17 c57 10 104 17 106 15 2 -2 -33 -28 -77 -59 -44 -32 -83 -61 -86 -67 -7
-10 13 -79 22 -79 15 0 389 63 392 66 3 3 -16 59 -24 71 -1 2 -51 -6 -110 -17
-60 -10 -111 -18 -113 -16 -2 2 38 32 87 67 50 34 91 65 91 69 0 4 -5 21 -11
38 -9 25 -15 31 -32 27 -54 -12 -201 -34 -204 -31 -2 2 37 34 87 71 49 37 90
70 90 73 0 14 -25 72 -31 72 -4 0 -77 -53 -162 -117z"/>
<path d="M1984 3174 c-12 -65 2 -175 30 -238 14 -33 25 -60 24 -62 -2 -1 -61
42 -132 96 -71 54 -147 108 -168 120 l-38 21 0 -34 c0 -140 110 -272 272 -326
65 -22 200 -53 205 -47 7 7 -28 288 -41 330 -23 75 -63 134 -106 156 l-39 20
-7 -36z"/>
<path d="M6018 3163 c-83 -85 -118 -196 -118 -376 l0 -87 28 6 c314 70 420
158 447 372 l7 53 -171 -125 c-94 -69 -171 -124 -171 -122 0 2 10 25 21 52 32
72 40 274 11 274 -4 0 -29 -21 -54 -47z"/>
<path d="M2229 2913 c-3 -122 3 -209 16 -239 7 -18 33 -61 56 -95 l42 -63 -39
24 c-134 81 -198 112 -296 144 -111 37 -138 42 -138 29 0 -25 68 -118 124
-170 93 -88 176 -126 287 -131 52 -3 101 0 123 8 l36 12 0 66 c0 87 -21 182
-59 273 -30 73 -94 159 -132 179 -17 10 -19 7 -20 -37z"/>
<path d="M5780 2910 c-85 -108 -150 -284 -150 -409 0 -71 15 -84 97 -89 141
-8 264 40 368 142 53 53 123 162 111 173 -2 3 -61 -14 -130 -37 -111 -37 -175
-68 -309 -150 l-38 -23 46 71 c25 40 53 91 62 114 19 54 20 181 1 228 l-14 34
-44 -54z"/>
<path d="M6625 2921 c-74 -34 -105 -85 -105 -172 0 -52 24 -111 57 -141 69
-63 191 -75 256 -25 64 48 97 160 66 220 -14 27 -60 77 -71 77 -5 0 -16 -16
-25 -35 -16 -33 -16 -36 2 -55 25 -27 24 -83 0 -111 -11 -12 -35 -28 -53 -36
-31 -13 -38 -12 -76 6 -44 22 -76 64 -76 101 0 35 32 79 66 92 41 14 83 82 58
92 -27 10 -57 6 -99 -13z"/>
<path d="M1407 2638 l-136 -152 21 -30 c12 -17 22 -32 23 -34 1 -1 46 13 100
33 53 19 100 35 103 35 3 0 -27 -33 -66 -74 -40 -41 -72 -80 -72 -87 0 -8 10
-26 23 -40 l22 -27 182 67 c101 36 183 70 183 74 0 5 -9 22 -20 37 l-20 28
-102 -39 c-57 -21 -105 -39 -108 -39 -2 0 23 28 56 63 102 106 99 101 78 136
-10 17 -21 31 -24 31 -3 0 -51 -18 -108 -39 -56 -22 -102 -36 -102 -32 0 4 12
18 26 32 14 13 48 50 76 81 l50 58 -22 35 c-12 19 -23 35 -25 35 -1 0 -64 -68
-138 -152z"/>
<path d="M2513 2583 c8 -123 35 -189 110 -269 l60 -65 -65 24 c-35 14 -82 34
-104 44 -59 30 -334 90 -334 74 0 -4 13 -27 29 -52 91 -144 313 -225 505 -186
43 9 81 19 85 22 12 12 -39 178 -81 263 -32 65 -61 106 -114 159 -39 40 -77
73 -84 73 -10 0 -12 -20 -7 -87z"/>
<path d="M5503 2641 c-47 -34 -120 -139 -163 -237 -29 -63 -70 -193 -70 -220
0 -18 109 -44 181 -44 128 0 260 49 354 132 43 38 85 95 85 116 0 23 -274 -48
-424 -110 -38 -15 -71 -28 -73 -28 -3 0 22 30 55 68 69 78 101 135 107 194 19
181 19 180 -52 129z"/>
<path d="M2846 2393 c45 -189 64 -231 131 -295 21 -20 56 -48 77 -62 47 -31
26 -34 -46 -6 -29 12 -86 28 -127 36 -99 19 -311 31 -311 17 0 -24 94 -113
143 -136 120 -56 300 -62 460 -15 35 11 37 13 32 42 -11 52 -80 188 -129 253
-55 73 -135 147 -188 174 -48 25 -50 24 -42 -8z"/>
<path d="M5175 2398 c-116 -61 -288 -302 -306 -428 -3 -21 2 -27 34 -37 146
-48 344 -41 459 18 43 22 133 101 149 131 10 18 5 18 -83 13 -145 -10 -234
-24 -336 -56 -112 -34 -129 -36 -82 -8 98 58 165 158 201 297 27 107 28 104
-36 70z"/>
<path d="M1732 2168 l-104 -171 30 -30 30 -30 87 53 c47 29 88 50 90 48 2 -2
-22 -43 -52 -91 l-56 -88 29 -29 29 -30 172 103 173 104 -28 26 c-16 15 -31
27 -34 27 -3 0 -46 -24 -94 -54 -49 -30 -90 -53 -92 -51 -2 2 24 45 58 95 l62
92 -27 28 -27 28 -92 -55 c-50 -30 -95 -58 -101 -61 -9 -5 11 30 82 148 l33
54 -27 28 c-15 15 -29 28 -32 28 -3 0 -52 -78 -109 -172z"/>
<path d="M6609 2304 l-22 -36 29 -24 c16 -13 34 -23 41 -24 10 0 53 59 53 73
0 6 -64 47 -73 47 -3 0 -15 -16 -28 -36z"/>
<path d="M6136 2236 c-165 -99 -74 -356 126 -356 62 0 113 29 146 82 46 75 37
150 -26 220 -72 79 -169 101 -246 54z m131 -72 c19 -9 45 -31 59 -49 68 -89
-26 -194 -122 -135 -75 47 -95 121 -45 171 34 33 58 36 108 13z"/>
<path d="M5866 1986 c-19 -16 -26 -28 -20 -37 4 -8 62 -76 127 -152 l119 -137
32 27 c26 22 31 31 22 44 -22 32 -239 279 -245 279 -3 -1 -19 -11 -35 -24z"/>
<path d="M4490 1972 c-99 -5 -181 -26 -312 -78 -155 -62 -147 -62 -280 -2
-181 80 -370 102 -514 57 -72 -22 -332 -134 -349 -150 -5 -5 28 -9 85 -10 200
-2 249 5 414 58 148 48 228 51 303 9 53 -29 90 -62 81 -71 -2 -3 -36 -12 -74
-22 -38 -9 -78 -22 -88 -29 -18 -12 -17 -13 10 -21 38 -11 523 -10 549 0 19 8
18 10 -10 24 -16 9 -48 20 -70 24 -22 4 -53 12 -69 19 -28 10 -28 11 -10 31
45 50 92 64 209 63 98 -1 120 -4 200 -33 154 -56 291 -72 430 -52 39 6 45 9
30 15 -11 5 -81 37 -155 71 -172 81 -263 104 -380 97z"/>
<path d="M5629 1797 c-96 -58 -138 -92 -134 -105 3 -9 195 -292 211 -311 4 -5
150 97 178 126 62 61 52 160 -25 247 -76 86 -139 98 -230 43z m138 -72 c33
-23 63 -79 63 -117 0 -35 -17 -58 -72 -92 l-26 -17 -61 87 c-34 48 -61 90 -61
93 0 4 19 19 42 34 47 30 83 34 115 12z"/>
<path d="M2376 1599 c-53 -94 -96 -172 -94 -173 2 -1 16 -10 31 -19 15 -10 32
-15 36 -12 5 3 33 48 62 99 29 52 55 93 57 91 3 -3 -30 -176 -44 -225 -2 -10
9 -23 32 -35 l35 -19 91 90 c72 70 86 81 69 52 -11 -21 -30 -54 -41 -73 -11
-19 -29 -51 -41 -70 l-20 -34 38 -19 37 -20 94 164 c51 90 94 167 94 171 1 4
-22 21 -51 36 l-52 29 -89 -88 c-62 -60 -90 -82 -90 -69 0 10 9 67 21 127 11
60 19 111 17 112 -1 1 -24 14 -49 29 l-47 27 -96 -171z"/>
<path d="M5368 1639 l-37 -19 61 -126 c66 -139 68 -163 17 -189 -63 -33 -78
-22 -146 110 -34 66 -64 124 -66 129 -2 7 -59 -15 -75 -29 -8 -7 119 -257 142
-280 48 -48 172 -29 234 37 55 59 47 113 -41 285 l-52 101 -37 -19z"/>
<path d="M2037 1614 c-16 -19 -27 -37 -25 -38 1 -1 19 -14 38 -29 l36 -26 29
36 29 36 -34 29 c-19 15 -37 28 -40 28 -3 0 -18 -16 -33 -36z"/>
<path d="M2892 1337 c-67 -84 -123 -156 -123 -162 -1 -5 15 -16 34 -24 34 -13
36 -12 64 18 l28 32 63 -22 62 -21 0 -42 c0 -41 2 -44 39 -58 l38 -15 7 135
c3 74 6 168 6 207 l0 73 -40 16 c-22 9 -44 16 -48 16 -4 -1 -62 -69 -130 -153z
m133 -64 c-3 -18 -8 -33 -10 -33 -4 0 -57 22 -64 27 -2 1 14 24 35 50 l39 48
3 -29 c2 -16 1 -44 -3 -63z"/>
<path d="M4875 1431 c-160 -51 -157 -49 -135 -107 l9 -23 55 19 56 19 46 -145
c27 -86 51 -144 58 -144 7 0 27 5 43 11 l31 10 -44 137 c-24 75 -44 142 -44
148 0 6 25 18 56 28 42 13 54 21 50 33 -3 8 -9 26 -12 39 -3 13 -9 24 -13 23
-3 0 -73 -22 -156 -48z"/>
<path d="M3278 1203 l-45 -188 40 -12 c22 -7 42 -12 43 -10 8 9 91 373 86 379
-4 3 -23 9 -42 13 l-36 6 -46 -188z"/>
<path d="M3496 1323 c-9 -44 -46 -321 -46 -342 0 -15 9 -22 35 -27 20 -3 38
-4 41 -2 2 3 9 45 15 94 5 49 12 96 15 104 4 9 29 -32 65 -102 56 -111 61
-117 94 -124 20 -3 37 -5 39 -3 4 5 56 382 53 385 -1 1 -20 4 -42 6 l-40 3
-12 -85 c-7 -47 -14 -94 -15 -105 -3 -13 -24 19 -62 95 -32 63 -59 116 -60
116 0 1 -17 4 -38 8 -34 6 -37 5 -42 -21z"/>
<path d="M4432 1326 c-24 -8 -52 -22 -63 -32 -44 -40 -42 -139 4 -168 12 -7
58 -16 102 -19 96 -7 115 -13 115 -37 0 -24 -18 -36 -63 -44 -31 -6 -41 -3
-61 17 -20 20 -30 23 -63 18 -41 -7 -45 -23 -17 -67 51 -77 236 -60 282 26 19
36 8 98 -22 128 -22 22 -37 27 -110 31 -96 7 -126 23 -103 55 18 24 96 34 111
14 13 -18 87 -11 93 9 2 6 -9 26 -25 44 -24 27 -36 33 -83 35 -30 2 -73 -3
-97 -10z"/>
<path d="M3900 1060 l0 -25 170 3 170 3 0 24 0 25 -170 -3 -170 -2 0 -25z"/>
</g>
</svg>
